# xmcd
#
# Track frame offsets:
#	150
#	13922
#	27369
#	42152
#	53492
#	66512
#	77602
#	89782
#	99940
#	116212
#
# Disc length: 1735 seconds
#
# Revision: 0
# Processed by: cddbd v1.5.1PL2 Copyright (c) Steve Scherf et al.
# Submitted via: audiograbber 1.83.01
#
DISCID=8106c50a
DTITLE=George Jones and Tammy Wynette - George and Tammy_Super Hits
DYEAR=1995
DGENRE=Country
TTITLE0=Golden Ring
TTITLE1=We're Gonna Hold On
TTITLE2=When I Stop Dreaming
TTITLE3=We Go Together
TTITLE4=Southern California
TTITLE5=(We're Not) The Jet Set
TTITLE6=Two Story House
TTITLE7=Something To Brag About
TTITLE8=My Elusive Dreams
TTITLE9=The Ceremony
EXTD=
EXTT0=
EXTT1=
EXTT2=
EXTT3=
EXTT4=
EXTT5=
EXTT6=
EXTT7=
EXTT8=
EXTT9=
PLAYORDER=
